<svg xmlns="http://www.w3.org/2000/svg" xmlns:xlink="http://www.w3.org/1999/xlink" version="1.1" id="Layer_1" x="0px" y="0px" viewBox="0 0 606.1 126" style="enable-background:new 0 0 606.1 126;" xml:space="preserve"> <style type="text/css"> .st0{fill:#4777AA;} </style> <path class="st0" d="M108,121.8l-0.2-78l-38.6,64.5h-9.7L20.8,44.9v76.9H0V4.2h18l46.7,78l45.9-78h18l0.2,117.6H108z"></path> <path class="st0" d="M290.4,4.2h21.8v117.6h-21.8V4.2z"></path> <path class="st0" d="M412.6,121.8l-24-34.4c-1.5,0.2-3,0.2-4.5,0.2h-26.5v34.3h-21.8V4.2H384c30.9,0,50.1,15.8,50.1,41.8 c0,17.8-9.1,30.9-25,37.1l27,38.6H412.6z M383,22.7h-25.5v46.9H383c19.2,0,29.1-8.7,29.1-23.5C412.1,31.2,402.2,22.7,383,22.7z"></path> <path class="st0" d="M534.7,94.6h-58.8l-11.6,27.2h-22.5L494.7,4.2h21.5l53.1,117.6h-22.8L534.7,94.6z M527.5,77.4L505.3,26 l-22,51.4H527.5z"></path> <path class="st0" d="M584.3,4.2h21.8v117.6h-21.8V4.2z"></path> <g> <path class="st0" d="M252.3,84.1c-5,4.1-5.8-5.1-1.3-6.6c10.9-4.2,14,9.1,9.5,16.7c4.6-3.7,3.6-10.8,3.1-14.4 c8.5,11-7.1,25.1-14.9,32.2c-7-12.8-18-1.1-27.8-0.6c-8.3,0.5-16-4.1-21.3-10.2c-20-29-47-11.1-36.2,3.8 c-2.3-10.4,5.9-19.1,16.5-16.8c-5.8-0.3-13.2,2.6-13.7,9.1c3.6-7.4,13.6-10.2,20.3-5.1c4.9,3.2,6,9.3,9.6,13.7 c2.8,3.4,6.6,6.9,11.2,7.1c-6.1-2.8-10.2-8.1-13.3-13.9c5.6,7.2,14.3,15.7,24.5,14.4c3.8-0.9,7.8-1.5,11.5,0.2 c0.5,0.2,0.6,0.2,0.9-0.3c3.1-5.1,11.5-5.3,13.5,0.9c0.7,2.8-9,5.9-11.3,7.4c-2.2-2.4-5.5-2.6-8.5-1.8c-6.5,1.6-5.3,7-12.2,6.3 c3.7-4.9,9.5-9.2,15.9-8.8c0.8-0.3,4.8,1.6,4.1,0.5c-6.9-7.2-17.5-1.9-23.8,3.4c-3.5,2.7-4.5,5.9-9.5,4.1c2.8-3.4,7.3-4.5,10.6-7.2 c-5.8-0.6-11.2,2.9-15.4,6.3c-1.9-0.7-13.3-3-11.5-5.5c1.4-2.2,4.6-2.1,6.4-0.6c1.6,1.1,2.8,3.1,4.9,1.9c-0.9-1-1.8-1.7-2.4-2.8 c9.6,4.7-2.6-4.1-5.2-5c-4.2-0.9-7.7,2.7-5.9,6.8c-58.9-31-37-119,29.5-119.1c40.4-0.2,71.4,40.9,60,79.7c-1.2,4.3-1.2,4.6-2.5,0.1 c-2.8-9.8-18.4-13.3-22.6-2.7C242,83.4,251,89.9,252.3,84.1z M220.3,44.4C220.3,44.4,220.4,44.3,220.3,44.4 c1.2-8.2-7.3-8.7-10.9-14.5c-0.9-1.5-1.8,1.5-2.6,1.9c-1.4,1.4-3,2.6-4.6,3.7c-4.3,1.7-4.9,6.5-4.6,10.6 C200.2,65.7,219.8,63.1,220.3,44.4z M212.5,101.7c-3.4,3.5-4.2-4-0.1-4c5.5-0.5,7.9,6.8,13.5,6.6c5.5,1,10.8-2.6,16.4-1.7 c4-0.5,7.9,4.3,11.6,1.5c-8.2-8.4-33.1,0.5-16.9-5c5.9-1.6,12.3-0.6,17.5,2.5c1.3,0.8,2.3-0.7,3.3-1.3c0.4-1.6-5.3-2.9-6.8-3.4 c-1.3-0.6-2.9-0.6-4.3-0.9c1.6-0.7,4.1-0.1,6-0.4c6.9-0.6,10.6-14.2,2.1-14.8c3.8,5.2-0.6,11.9-6.2,13.1c-4.6,1-9.4,0.6-13.6,3.2 c-9.2,5.3-11.4,1.5-18.9-3.3c-4.3-2-11.2,2-9.4,7.1C207.1,103.8,212.7,105.3,212.5,101.7z M229.7,57.5c4-9.7,12.7-6.7,19.9-15.3 c-1.2,2.8-3.8,4.6-5.5,7.1c-7.8,11.1,15.4,18.2,10.7,10.5c-1.6-1.7,4.7-2.5-0.3-3.4c-0.2,0-0.5,0.1-0.6-0.4 c5.9-1.4,2.5-0.9,3.9-3.4c0.8-0.6,2.1-1,1.4-2.3c-3.9-5.8-1.4-13.1-5.5-18.8c-1-1.4-0.6,1.7-0.9,2.3 C250.7,48.5,229.8,44.5,229.7,57.5z M163.8,56c-0.5,0.8-3.4,0.3-2.3,1.6c3.3,2.1-0.5,2.2,0.3,4.4c1.1,1.9,3.4,0.8,5.1,0.5 c4.4-1,8.1-4.1,8.6-8.7c0.6-8.8-8.9-14.3-10.6-22.5c-4.8,4.6-1.9,12.5-5.6,17.8c-2.4,3.3,0.7,2.1,0.9,4.5 C159.8,55.7,162.4,55.7,163.8,56z M188.3,80.3c8.9-4.8,16.8-7.5,27.5-5.3c3.2,0.7,6.3,2.1,9.3,3.5c2.4,0.5,1.9-2.3,0.5-3.1 c-1.7-1.5-4.3-1.3-5.8-3c-2.8-3.6-3.2-8.4-3.8-12.7c-3.6,2.9-7.5,5.6-10.7,9c2.4,0.2,4.7,0,6.9,1c-11.5,1.3-23.6,5.6-32.3,12.9 c2,1.5,10.9-6.7,14.1-6.2C191.9,77.5,189.9,78.6,188.3,80.3z M192.9,85.1c4.4-1.9,8.9-5.5,14.1-5.9c9.9-2.1,23.3,10.5,16.3,2.8 c10.8,5.4-6.6-9.7-23.4-5c-5,1.4-9,5.1-13.4,7.7c2.2,2.5,6.7-2.8,9.3-3.7c2.5-1.1,5.3-2.6,8-2.4C199.8,79.7,195.8,81.9,192.9,85.1z M192.9,105.9c-1.7-3.9-3.7-8.9-7.4-11.8c-6.6-5.4-16.9-1.5-18.2,6.9c-0.3,3.5,0.5,7.1,3.1,9.6c1.6,1.2-1.4-3.9-1.2-5 c-1.5-5.8,3.1-11.4,9.2-10.5C185.1,95.6,187.8,102.8,192.9,105.9z M199.5,86.9c-6.1,8,5.1-6.5,16.2-1.6c5.2,1.6,8.1,6.8,12.9,8.7 c-3-4.4-8.1-8.1-12.9-10.2c2.3,0.5,4.5,1.4,6.7,2.2c-5-5.4-14.9-5.8-21.3-2.6c-1.2,0.6-10.6,7.1-6.3,7.1 C196.2,89.1,197.7,87.6,199.5,86.9z M183.4,55.4c4.1,12.5-4.3,18.8-11.6,27.2c8.3-1.3,18.5-9.7,16.5-18.7c-0.8,6.4-5.1,12-11,14.7 C183.6,73.5,189.6,62.5,183.4,55.4z M230,21.9c32.2-2.1,14.2,24.2,2.2,10.7c-1.3-1.4-3.6-3.2-5.4-2.8c2.8,2.6,5.2,6.1,8.8,7.6 c5.1,1.9,11.8-0.8,14.2-5.7C252.6,21.8,236.7,18.6,230,21.9z M230.7,81c7.2-5.4,0.8-13.2-2-19.3c-2.2-5.3-0.1-11.9,5.1-14.5 c1.2-1,3.5-1,4.4-2c-0.9,0-1.8,0-2.7,0.3c-8.1,0.4-10.7,10.1-8.5,16.7C229.3,68.6,234.7,73.9,230.7,81z M198.1,114.6 c-4.7-2.4-7.7-7.3-12.9-8.8c-4.8-2.1-11.9,2.2-9.4,7.7C184.8,100.9,190.5,116.1,198.1,114.6z M234.6,59.4c-0.9-1.3,0.7-3.8,0.5-5.4 c-3.7,3.1-4,9.9-0.7,13.4c-0.1-3.3-0.5-7.4,2.8-9.5c0.6,5.1,4.2,8.7,7.5,12.3c0.3-4.6-5.4-7.5-5.5-12.3c-0.1-1.7-0.3-3.4,0.3-5.1 c0.1-0.3,0.1-0.6-0.2-0.8c-2.2,0.8-1.3,3.5-2.6,4.8C235.7,57.5,235.3,58.6,234.6,59.4z M157.8,94c3.3-9.4,19.3-15.4,20.2-24.9 c-4.1,5.1-8.7,9.6-13.5,14C161.4,85.8,156.1,89.4,157.8,94z M237,64.7c-0.6,3.1,0.3,6.2-0.1,9.4c0.3,7.5-12.6,10.6-5.5,18.1 c-2.1-5.5,3.2-8.7,5.7-12.8C239.4,75,239.9,68.8,237,64.7z M218.6,89.8c-4.8-5.8-18.6-3.6-20.3,4.3c5.5-4.6,12.9-6.5,19.6-3.1 c-2.4-2.6-6.9-2.6-10.3-3C211.3,87.4,215.2,88,218.6,89.8z M171.4,28.6c6.1,0.7,6-7.8,18.4-5.9c-3-2.5-7.7-2.4-11.2-1.1 C175.2,22.8,174.2,26.5,171.4,28.6z M228.6,35c-0.1,0-0.1,0-0.2,0.1c2.6,10,18.1,10,21.8,0.9C243.6,42.1,234.4,43.3,228.6,35z M225.3,31.7c-2.6-6.1-10.8-7.7-15.2-12.4c-0.3-0.5-0.9-0.3-0.5,0.3C212.6,25.9,219.8,28.3,225.3,31.7z M207.9,19.2 c-4.4,4.9-12.8,6.2-15.4,12.5C197.5,28.1,206.7,25.9,207.9,19.2z M170.5,36.4c4.8,3.2,12.1,1.1,17.2,4.4c-0.6-1.6-2.1-2.1-3.2-3.2 c1.3-0.2,2.3,0.7,3.6,0.3C183,34.3,176.2,36.8,170.5,36.4z M176.9,46.6c5,7.5,12.9,6.5,14.5,19.1C194.1,56.5,183.7,50.4,176.9,46.6 z M227.8,25.6c5,4.6,8.6-0.8,15,8C244.2,27.4,232.6,24.3,227.8,25.6z M169.8,75c5.5-4.9,11.2-12.9,9-20.6c-0.8,2.8-1,6.1-2.2,8.9 C175,67.6,171.4,70.8,169.8,75z M187.5,29.5c-3-1.7-7.9-1-11,0.6c-2.7,2-5.8,1.8-9,1.9c2.7,3.7,8,0.6,11.1-1.1 C181.4,29.6,184.6,30.4,187.5,29.5z M209.4,24.2c1.1,7.1,10.3,10.6,16.1,12.7C220.3,32.4,213.4,30.1,209.4,24.2z M189,50.3 c-4.3-3.5-8.8-7.8-14.3-9.2C176.9,43.9,185.7,50.8,189,50.3z M208,24.6c-3.8,5.8-11,7.6-15.8,12.2C197.2,35,207.7,31.1,208,24.6z M245.6,30.4c3-5.1-6.3-7.6-10-7.1C239.2,25.3,243.2,26.9,245.6,30.4z M224.4,24.9c-2.4-4.8-8-7.6-13.1-8.9 C215.1,19.6,220.1,22,224.4,24.9z M193.6,24.7c2.9-1.2,5.2-3.5,8-5c1.6-1.2,3.9-1.9,4.9-3.6C201.6,17.3,196.1,20.1,193.6,24.7z M224.8,62.8c-1.2,4.2,1.7,9.8,5,12.5C229.9,70.6,225.5,67.3,224.8,62.8z M164.8,77.5c-2.3,4.5-9.7,6.6-9.8,12.1 C157.5,85.4,164.5,82.4,164.8,77.5z M237.9,83.3c-1.2,1.4-1.1,2,0.2,3.2c2.1,2.3,5.2,5.1,8.5,4C242.9,89.1,240.1,86.5,237.9,83.3z M189.1,32.9c-3.9-1.1-8.9-1.4-12.2,1.2C180.9,33.3,185.5,34.8,189.1,32.9z M216.4,103.4c0.2,1.4,5.2,3.1,3.4,3.8 c0.9,0.7,4.5,0.6,5.5,0c-10.1-2.6-7.6-8.5-11.2-2.2C215.1,104.7,215.7,104.2,216.4,103.4z M232.3,29.6c1.3,1.7,3.6,4.4,6.1,4.2 c0.6,0.1,1.4-0.1,0.9-0.8C237.8,30.7,235,29.4,232.3,29.6z M166.6,28c3.1-1,6.2-4,8.9-6.1C173.1,21.8,167.9,25.2,166.6,28z M181.8,59.9c-0.9,2.1-3.7,7.3-2.2,9.3C181,68.2,182.6,61.4,181.8,59.9z M189.1,45.4c-2-2.5-5.2-4.4-8.5-4.1 C183,42.5,186.7,45.6,189.1,45.4z M198.8,69.9c2.8,0,5.1-3.1,6.2-5.4C202.5,65.9,200.8,68,198.8,69.9z M182.2,26.3 c0,0.1,0,0.1,0,0.2C196.7,28.5,187.1,23.8,182.2,26.3z M239.7,91.2c-1.6-1-2.9-2.6-4.4-3.6C233.6,89.3,238.3,92.3,239.7,91.2z M241.5,69.6c0,1-0.4,5.5,0.4,5.7C242.8,73.4,243.5,70.9,241.5,69.6z M238.7,45.1C238.7,45.1,238.7,45.1,238.7,45.1 C238.7,45.2,238.7,45.2,238.7,45.1C238.7,45.1,238.7,45.1,238.7,45.1C238.7,45.1,238.7,45.1,238.7,45.1z"></path> <path class="st0" d="M208.9,50.9c-1.2,0.3-3.6-1.8-1.6-1.9c0.8,0.3,1.6,0.8,2.4,0.3C212.7,48,210.6,51.3,208.9,50.9z"></path> <path class="st0" d="M212.5,52.9c-0.1,0.8-1.5,0.3-2.1,0.6C201.2,53.8,207.3,51.7,212.5,52.9z"></path> <path class="st0" d="M207.4,54.9c0.6-0.4,2.4-0.3,2.9,0.1C209.5,55.6,208.1,55.7,207.4,54.9z"></path> <path class="st0" d="M256.2,51.7c0.7-0.1,1.3-0.1,1.9,0C258.1,52.6,256.7,52.5,256.2,51.7z"></path> <path class="st0" d="M161.6,51.5c-0.1,0.8-1.4,1.2-1.7,0.3C160.4,51.5,161,51.7,161.6,51.5z"></path> <path class="st0" d="M205.8,83.9c-1.4,0.1-4.1,1.8-5.2,1.3C202.1,84.5,204.3,83.3,205.8,83.9z"></path> </g> </svg>